<svg xmlns="http://www.w3.org/2000/svg" viewBox="0 0 171.56 167.13"><defs><style>.cls-1{fill:#565959;}</style></defs><title>Zentto grey</title><g id="Capa_2" data-name="Capa 2"><g id="Capa_3" data-name="Capa 3"><path class="cls-1" d="M171.39,97.78a15,15,0,0,1-29.81-1.36l-39.93-6A20,20,0,0,1,72.6,102L47.47,133.59a15,15,0,1,1-4.72-3.74L67.9,98.25a20,20,0,0,1,4.53-30.92L57.65,29.77a15,15,0,1,1,5.57-2.21L78,65.12a20,20,0,0,1,23.12,12.13,19.54,19.54,0,0,1,1.4,7.25l39.93,6a15,15,0,0,1,28.94,7.3Z"/><path class="cls-1" d="M49.69,154.12a14,14,0,0,0,1.11-1.57,75,75,0,0,0,101.33-40c.61.15,1.23.28,1.86.38a17.46,17.46,0,0,0,6.09-.17A82.47,82.47,0,0,1,45.16,158.15,17.43,17.43,0,0,0,49.69,154.12Z"/><path class="cls-1" d="M37.51,15.45a17.17,17.17,0,0,0,1.22,6,15.69,15.69,0,0,0,.79,1.71,75.1,75.1,0,0,0-16,107.8c-.44.45-.86.92-1.26,1.42a17.35,17.35,0,0,0-2.9,5.35A82.57,82.57,0,0,1,37.51,15.45Z"/><path class="cls-1" d="M68.06,3.38a82.53,82.53,0,0,1,96.86,76.83,17.51,17.51,0,0,0-5.8-1.95,16.64,16.64,0,0,0-1.87-.16A75,75,0,0,0,71.87,10.38a15.83,15.83,0,0,0-.6-1.8A16.9,16.9,0,0,0,68.06,3.38Z"/><path class="cls-1" d="M84.77,49.55a34.6,34.6,0,0,1,5.16.8,35.81,35.81,0,0,1,22.71,16.4,35.32,35.32,0,0,1,2.2,4.22c.4.93.77,1.87,1.09,2.81L143.26,78a61.64,61.64,0,0,0-8.52-24.65c-.82-1.35-1.68-2.66-2.6-3.92A61.31,61.31,0,0,0,107.1,29a61.93,61.93,0,0,0-32.25-5ZM25.61,59.82a61.77,61.77,0,0,0,3.4,57.6q1.5,2.47,3.19,4.75l17.17-21.36a34.85,34.85,0,0,1-1.91-4.89A36,36,0,0,1,52.93,64c.46-.61.93-1.23,1.42-1.82L44.3,36.34A61.54,61.54,0,0,0,25.61,59.82Zm88.3,78.44c1.46-.88,2.86-1.82,4.21-2.8A61.32,61.32,0,0,0,138.58,110l-27.1-4.19a35.28,35.28,0,0,1-3.28,4.1,36,36,0,0,1-31,11.14c-.77-.1-1.53-.22-2.3-.37L57.58,142.22a61.71,61.71,0,0,0,56.33-4Z"/></g></g></svg>