<svg xmlns="http://www.w3.org/2000/svg" viewBox="0 0 189.99 189.99"><defs><style>.cls-1{fill:none;}.cls-2{fill:#edeef0;}</style></defs><title>Recurso 3</title><g id="Capa_2" data-name="Capa 2"><g id="Capa_3" data-name="Capa 3"><circle class="cls-1" cx="94.99" cy="94.99" r="94.99"/><path class="cls-2" d="M183.86,108.17a15,15,0,0,1-29.81-1.36l-39.93-6a20,20,0,0,1-29,11.54L59.94,144a15,15,0,1,1-4.72-3.73l25.15-31.6A20,20,0,0,1,84.9,77.72L70.12,40.16A15,15,0,1,1,75.7,38L90.47,75.51A20,20,0,0,1,113.6,87.64,19.69,19.69,0,0,1,115,94.89l39.93,6a15,15,0,0,1,28.94,7.31Z"/><path class="cls-2" d="M62.16,164.51a14.93,14.93,0,0,0,1.11-1.57,75,75,0,0,0,101.33-40,16.74,16.74,0,0,0,1.87.38,17.18,17.18,0,0,0,6.08-.16A82.47,82.47,0,0,1,57.63,168.54,17.29,17.29,0,0,0,62.16,164.51Z"/><path class="cls-2" d="M50,25.84a17.12,17.12,0,0,0,1.22,6,14.2,14.2,0,0,0,.8,1.72,75.1,75.1,0,0,0-16,107.8c-.44.44-.85.92-1.26,1.42a17.78,17.78,0,0,0-2.9,5.35A82.58,82.58,0,0,1,50,25.84Z"/><path class="cls-2" d="M80.53,13.77A82.56,82.56,0,0,1,177.4,90.59a17.4,17.4,0,0,0-5.81-1.94,16.48,16.48,0,0,0-1.86-.17A75,75,0,0,0,84.34,20.76a18.92,18.92,0,0,0-.59-1.8A17.07,17.07,0,0,0,80.53,13.77Z"/><path class="cls-2" d="M97.24,59.94a35.91,35.91,0,0,1,27.88,17.2,39.3,39.3,0,0,1,2.2,4.21c.4.93.76,1.87,1.08,2.81l27.33,4.23a61.5,61.5,0,0,0-8.52-24.64c-.82-1.35-1.68-2.67-2.59-3.93a61.88,61.88,0,0,0-57.3-25.46ZM38.09,70.2a61.76,61.76,0,0,0,3.39,57.61c1,1.64,2.07,3.23,3.2,4.75L61.84,111.2a33.61,33.61,0,0,1-1.9-4.89,36,36,0,0,1,5.47-31.88c.45-.62.92-1.24,1.42-1.82l-10-25.89A61.43,61.43,0,0,0,38.09,70.2Zm88.29,78.44c1.46-.88,2.86-1.81,4.22-2.79a61.47,61.47,0,0,0,20.46-25.46L124,116.2a36,36,0,0,1-34.3,15.24c-.77-.11-1.53-.22-2.29-.38L70.05,152.61a61.67,61.67,0,0,0,56.33-4Z"/></g></g></svg>